<svg width="101" height="20" viewBox="0 0 101 20" fill="none" xmlns="http://www.w3.org/2000/svg">
<path d="M11.75 9.775C13.4 10.55 14.425 12.125 14.425 14.025C14.425 16.875 11.975 19.025 8.75 19.025H0.675V1.525H8.575C11.675 1.525 13.95 3.4 13.95 6C13.95 7.55 13.075 8.95 11.75 9.775ZM9.375 6.8C9.375 5.875 8.75 5.275 7.75 5.275H5.3V8.325H7.75C8.75 8.325 9.375 7.7 9.375 6.8ZM7.925 15.05C8.975 15.05 9.65 14.4 9.65 13.45C9.65 12.525 8.975 11.875 7.925 11.875H5.3V15.05H7.925ZM27.6342 5.5H31.1092V19H27.5092L27.1092 18.05C26.0092 18.95 24.6092 19.45 23.0342 19.45C18.9092 19.45 15.9592 16.45 15.9592 12.25C15.9592 8.075 18.9092 5.1 23.0342 5.1C24.6342 5.1 26.0592 5.625 27.1592 6.55L27.6342 5.5ZM23.6592 15.35C25.4092 15.35 26.6842 14.025 26.6842 12.25C26.6842 10.5 25.4092 9.2 23.6592 9.2C21.9092 9.2 20.6342 10.5 20.6342 12.25C20.6342 14.025 21.9092 15.35 23.6592 15.35ZM42.1938 5.125C45.3188 5.125 47.3938 7.35 47.3938 10.775V19H42.7438V11.425C42.7438 9.85 42.1438 9.075 40.9688 9.075C39.5188 9.075 38.6938 10.075 38.6938 11.8V19H34.0438V5.5H37.3188L37.9438 6.9C38.9438 5.775 40.4438 5.125 42.1938 5.125ZM63.882 19H58.382L55.007 13.3V19H50.357V0.625H55.007V10.8L58.232 5.5H63.457L59.232 11.95L63.882 19ZM78.799 19H73.299L69.924 13.3V19H65.274V0.625H69.924V10.8L73.149 5.5H78.374L74.149 11.95L78.799 19ZM86.466 19.45C82.491 19.45 79.816 17 79.816 13.225V5.5H84.466V13.025C84.466 14.45 85.241 15.275 86.466 15.275C87.716 15.275 88.466 14.425 88.466 13.025V5.5H93.116V13.225C93.116 17 90.466 19.45 86.466 19.45ZM95.6852 19V14.7H100.21V19H95.6852Z" fill="#343C6A"/>
</svg>
